<svg height="512" viewBox="0 0 512 512" width="512" xmlns="http://www.w3.org/2000/svg"><g id="ESSENTIAL_UI" data-name="ESSENTIAL UI"><path d="m501.06 103.13c-9.63-43.48-51.78-83.31-95.38-91.77-26.57-5.31-100.68-11.87-149.68-11.36-49-.54-123.1 6-149.67 11.33-43.6 8.49-85.75 48.32-95.33 91.8-5.53 26.4-10.92 62.32-11 111.35.08 49 5.47 84.93 11 111.34 9.63 43.48 51.78 83.31 95.38 91.77 14.34 2.86 42.55 6.1 73.17 8.38q5.2 8.17 11.3 17.4c16.25 24.62 28.68 41.77 38.11 53.72 15.68 19.88 38.5 19.88 54.18 0 9.43-11.95 21.86-29.1 38.11-53.72q6.1-9.22 11.3-17.4c30.63-2.28 58.83-5.52 73.18-8.38 43.6-8.46 85.75-48.29 95.38-91.77 5.48-26.41 10.86-62.32 10.95-111.34-.14-49.04-5.52-84.94-11-111.35z" fill="#f9973e"/><path d="m256 0c-49-.54-123.1 6-149.67 11.33-43.6 8.49-85.75 48.32-95.33 91.8-5.53 26.4-10.92 62.32-11 111.35.08 49 5.47 84.93 11 111.34 5.67 25.59 22.61 49.92 44.48 67.33a279.05 279.05 0 0 0 65.13 7.67c153.63 0 278.17-124.54 278.17-278.16a277 277 0 0 0 -25.3-115.9c-34.17-3.84-82.29-7.12-117.48-6.76z" fill="#fca84c"/><path d="m284.28 363.14a16.49 16.49 0 0 1 -12.69 12.69 102.65 102.65 0 0 1 -31.17 0 16.48 16.48 0 0 1 -12.69-12.69 101.87 101.87 0 0 1 0-31.18 16.48 16.48 0 0 1 12.69-12.69 102.65 102.65 0 0 1 31.17 0 16.49 16.49 0 0 1 12.69 12.73 101.87 101.87 0 0 1 0 31.18zm60.88-163.79c-7.72 10.92-19.29 20.89-36.41 31.36-21.67 13.36-25.14 18.85-25.14 29.6v4.25a27.65 27.65 0 1 1 -55.29 0v-9.85c0-12.68 3.17-23.44 9.69-32.89 6.32-9.16 15.8-17.3 29.84-25.65 25.89-15.23 30.63-23.78 30.63-35.13 0-14.26-12.15-23.48-31-23.48-20.59 0-34 9.36-39.85 27.83a29.25 29.25 0 0 1 -28.06 20.36c-.72 0-1.45 0-2.16-.08a29.48 29.48 0 0 1 -22.42-13 29.09 29.09 0 0 1 -3.64-25.33 89.61 89.61 0 0 1 34.93-47.26c16.76-11.42 37.93-17.45 61.2-17.45 24.17 0 46.6 7.71 63.16 21.71 17.05 14.4 26.43 34.27 26.43 55.94.05 14.9-3.86 27.72-11.91 39.07z" fill="#fff"/></g></svg>